# xmcd
#
# Track frame offsets:
#	150
#	19241
#	38783
#	50453
#	67741
#	86380
#	109426
#	125580
#	143480
#	155318
#
# Disc length: 2276 seconds
# Revision: 0
# Processed by: cddbd v1.5.2PL0 Copyright (c) Steve Scherf et al.
# Submitted via: dBpowerAMP V12.0
#
DISCID=7b08e20a
DTITLE=Blackout - Goodbye
DYEAR=2009
DGENRE=Blues
TTITLE0=Yang Kedua
TTITLE1=Goodbye
TTITLE2=Letoy
TTITLE3=Resiko Orang Cantik
TTITLE4=Selalu Ada
TTITLE5=Cintaku
TTITLE6=Satu Alasan
TTITLE7=Terjadi Tanpa Cinta
TTITLE8=Tak Sanggup Lagi Denganmu
TTITLE9=Join Kopi
EXTD=
EXTT0=
EXTT1=
EXTT2=
EXTT3=
EXTT4=
EXTT5=
EXTT6=
EXTT7=
EXTT8=
EXTT9=
PLAYORDER=
